<?xml version="1.0" encoding="utf-8"?>
<!-- Generator: Adobe Illustrator 26.0.2, SVG Export Plug-In . SVG Version: 6.00 Build 0)  -->
<svg version="1.1" id="レイヤー_1" xmlns="http://www.w3.org/2000/svg" xmlns:xlink="http://www.w3.org/1999/xlink" x="0px"
	 y="0px" viewBox="0 0 214.6 60.8" style="enable-background:new 0 0 214.6 60.8;" xml:space="preserve">
<style type="text/css">
	.st0{fill:#FFFFFF;}
</style>
<g>
	<polygon class="st0" points="48.3,0 41,35.1 34,0 24.5,0 16.9,34.6 9.5,0 0,0 11.8,48.9 20.8,48.9 28.8,12.9 36.2,48.9 45.6,48.9 
		57.1,0 	"/>
	<polygon class="st0" points="75.1,0 61.3,48.9 70.7,48.9 80.4,9.9 89.7,48.9 99.4,48.9 86.4,0 	"/>
	<polygon class="st0" points="119.7,0 108.1,60.8 116.1,60.8 127.8,0 	"/>
	<polygon class="st0" points="165.2,0 155.5,39 146.2,0 136.5,0 149.5,48.9 160.9,48.9 174.6,0 	"/>
	<polygon class="st0" points="186.5,0 186.5,48.9 214.6,48.9 214.6,40.6 195.5,40.6 195.5,28.2 210.3,28.2 210.3,20.1 195.5,20.1 
		195.5,8.3 213.6,8.3 213.6,0 	"/>
</g>
</svg>
