<?xml version="1.0" encoding="UTF-8"?>
<svg id="_レイヤー_1" data-name="レイヤー 1" xmlns="http://www.w3.org/2000/svg" viewBox="0 0 616.82 174.32">
  <defs>
    <style>
      .cls-1 {
        fill: #fff;
      }
    </style>
  </defs>
  <polygon class="cls-1" points="140.71 0 119.53 100.6 98.97 0 71.27 0 49.08 99.17 27.69 0 0 0 34.42 140.31 60.48 140.31 83.7 36.86 105.28 140.31 132.77 140.31 166.37 0 140.71 0"/>
  <polygon class="cls-1" points="214.43 0 174.52 140.31 201.81 140.31 230.11 28.51 257.2 140.31 285.3 140.31 247.62 0 214.43 0"/>
  <polygon class="cls-1" points="340.48 0 306.68 174.32 329.9 174.32 363.9 0 340.48 0"/>
  <polygon class="cls-1" points="476.92 0 448.61 111.8 421.53 0 393.43 0 431.1 140.31 464.29 140.31 504.21 0 476.92 0"/>
  <polygon class="cls-1" points="534.76 0 534.76 140.31 616.82 140.31 616.82 116.48 561.03 116.48 561.03 80.85 604.2 80.85 604.2 57.63 561.03 57.63 561.03 23.83 613.77 23.83 613.77 0 534.76 0"/>
</svg>